<svg width="284" height="283" viewBox="0 0 284 283" fill="none" xmlns="http://www.w3.org/2000/svg">
<path d="M138.006 0.0492157C115.093 0.657169 92.2368 6.8472 70.989 19.0614C3.08469 58.136 -20.1603 144.631 19.0622 212.279C58.2847 279.927 145.107 303.084 213.011 264.01C280.915 224.935 304.16 138.441 264.938 70.7924C237.976 24.2567 188.379 -1.27722 138.006 0.0492157ZM98.5057 38.958C112.264 37.2999 127.243 43.6558 142 54.8752C145.606 52.167 149.489 49.8458 153.095 47.8009C175.12 35.1445 189.988 38.2948 198.809 43.3794C215.618 53.0513 220.611 73.7769 217.449 98.2054C240.25 107.712 255.618 122.192 255.618 141.536C255.618 151.65 251.013 166.462 228.988 179.118C225.382 181.163 221.61 183.097 217.449 184.866C220.611 209.35 215.618 230.02 198.809 239.692C181.999 249.364 161.694 243.174 142 228.196C138.394 230.904 134.954 233.225 131.348 235.27C109.324 247.927 94.0121 244.776 85.1912 239.692C76.4812 234.662 62.3345 220.624 66.5508 185.308C66.6063 185.087 66.9391 185.087 66.9946 184.866C66.7727 184.755 66.3289 184.534 66.107 184.424C33.2644 170.386 28.3824 151.594 28.3824 141.536C28.3824 131.422 32.987 116.61 55.0115 103.953C58.6175 101.908 62.39 99.9187 66.5508 98.2054C63.3886 73.7216 68.3815 53.0513 85.1912 43.3794C89.4075 40.9476 93.9011 39.5107 98.5057 38.958ZM100.281 53.1066C97.3962 53.3829 94.7333 54.3778 92.2923 55.7595C82.5837 61.3415 79.0332 75.2691 80.753 93.3418C89.9622 90.5784 99.8372 88.5887 110.489 87.1518C117.035 78.6957 123.914 71.1793 130.905 64.6024C119.754 56.699 108.991 52.2776 100.281 53.1066ZM177.506 53.5487C172.124 54.3225 166.355 56.6438 160.197 60.1809C157.977 61.4521 155.37 62.5575 153.095 64.1602C160.197 70.7924 167.076 78.8063 173.511 87.1518C183.996 88.5335 194.371 90.5784 203.691 93.3418C205.355 75.2691 201.416 61.3415 191.708 55.7595C187.602 53.3829 182.887 52.775 177.506 53.5487ZM142 73.4453C138.117 76.9824 134.344 81.0723 130.461 85.3832C134.289 85.2174 138.061 84.941 142 84.941C145.883 84.941 149.656 85.2174 153.539 85.3832C149.656 81.0723 145.883 76.9824 142 73.4453ZM142 99.0897C133.789 99.0897 125.69 99.6424 118.034 100.416C113.54 106.606 109.268 113.183 105.163 120.313C101.058 127.442 97.6181 134.517 94.5114 141.536C97.6181 148.555 101.058 155.629 105.163 162.759C109.268 169.888 113.485 176.465 118.034 182.655C125.69 183.484 133.789 183.981 142 183.981C150.211 183.981 158.31 183.484 165.966 182.655C170.515 176.465 174.732 169.888 178.837 162.759C182.942 155.629 186.826 148.555 189.932 141.536C186.826 134.517 182.942 127.442 178.837 120.313C174.732 113.183 170.515 106.606 165.966 100.416C158.31 99.5871 150.211 99.0897 142 99.0897ZM98.9496 103.511C93.2909 104.672 88.0205 105.888 82.9721 107.49C84.0816 112.686 85.524 118.268 87.4103 123.85C89.241 120.368 90.7389 116.665 92.7361 113.238C94.6778 109.867 96.8969 106.717 98.9496 103.511ZM185.05 103.511C187.159 106.772 189.322 109.867 191.264 113.238C193.206 116.61 194.814 119.981 196.59 123.408C198.42 117.936 199.918 112.63 201.028 107.49C196.035 105.888 190.709 104.672 185.05 103.511ZM69.2137 112.796C66.6618 113.957 64.3317 115.062 62.1126 116.333C49.8521 123.408 42.5846 132.085 42.5846 141.536C42.5846 152.755 53.0143 163.145 69.6575 170.717C71.8211 161.487 74.9833 151.76 78.9777 141.978C74.8724 132.14 71.4883 122.358 69.2137 112.796ZM214.786 112.796C212.567 122.192 209.017 131.808 205.022 141.536C209.072 151.263 212.567 161.266 214.786 170.717C217.338 169.557 219.668 168.009 221.887 166.738C234.148 159.664 241.415 150.986 241.415 141.536C241.415 130.371 231.319 120.368 214.786 112.796ZM140.225 127.387C145.717 126.724 151.487 129.377 154.427 134.461C158.366 141.204 155.869 149.992 149.101 153.916C142.333 157.84 133.512 155.353 129.573 148.61C125.634 141.867 128.131 133.08 134.899 129.156C136.619 128.161 138.394 127.608 140.225 127.387ZM87.4103 159.664C85.5795 165.135 84.0816 170.441 82.9721 175.581C87.9651 177.184 93.2909 178.399 98.9496 179.56C96.8414 176.299 94.6778 173.204 92.7361 169.833C90.7944 166.462 89.1855 163.09 87.4103 159.664ZM196.59 159.664C194.814 163.09 193.206 166.462 191.264 169.833C189.322 173.204 187.103 176.354 185.05 179.56C190.709 178.399 195.979 177.184 201.028 175.581C199.918 170.441 198.42 165.135 196.59 159.664ZM80.753 189.729C79.0332 207.857 82.5283 221.73 92.2923 227.312C100.503 232.065 111.987 230.407 124.247 223.332C126.466 222.061 128.63 220.514 130.905 218.911C123.748 212.168 116.591 204.375 110.045 195.919C99.5598 194.482 89.9068 192.493 80.753 189.729ZM203.247 189.729C194.038 192.493 184.163 194.482 173.511 195.919C166.965 204.375 160.086 211.947 153.095 218.469C167.963 228.97 181.999 232.894 191.708 227.312C201.416 221.73 204.967 207.857 203.247 189.729ZM130.017 197.688C133.956 202.054 138.061 206.033 142 209.626C145.883 206.089 149.656 201.999 153.539 197.688C149.711 197.854 145.939 198.13 142 198.13C138.006 198.13 133.956 197.909 130.017 197.688Z" fill="#004B91"/>
</svg>
