<svg width="30" height="35" viewBox="0 0 30 35" fill="none" xmlns="http://www.w3.org/2000/svg">
<path d="M19.6358 6.51163C21.7087 6.51163 23.4046 5.04651 23.4046 3.25581C23.4046 1.46512 21.7087 0 19.6358 0C17.563 0 15.867 1.46512 15.867 3.25581C15.867 5.04651 17.563 6.51163 19.6358 6.51163ZM13.6623 26.0465L14.7364 21.9767L18.6936 25.2326V33.3721C18.6936 34.2674 19.5416 35 20.578 35C21.6144 35 22.4624 34.2674 22.4624 33.3721V24.1907C22.4624 23.2953 22.0478 22.4488 21.2941 21.8302L18.5052 19.5349L19.6358 14.6512C21.6521 16.6698 24.5729 18.1186 27.8518 18.5744C28.9824 18.7209 30 17.9395 30 16.9465C30 16.1488 29.3216 15.4814 28.3983 15.3512C25.534 14.9442 23.1596 13.4791 21.8971 11.5581L20.0127 8.95349C19.2589 7.97674 18.1283 7.32558 16.8092 7.32558C16.2439 7.32558 15.867 7.48837 15.3017 7.48837L7.80181 10.2233C6.40735 10.7442 5.50284 11.9163 5.50284 13.2349V17.093C5.50284 17.9884 6.35082 18.7209 7.38724 18.7209C8.42366 18.7209 9.27164 17.9884 9.27164 17.093V13.186L12.6636 12.0465L9.64852 25.2326L2.26168 23.9302C1.24411 23.7512 0.245378 24.3209 0.0380948 25.2V25.2651C-0.169189 26.1442 0.49035 27.007 1.50792 27.186L9.25279 28.5209C11.2503 28.8628 13.21 27.7721 13.6623 26.0465Z" fill="black"/>
</svg>
