<svg width="209" height="209" viewBox="0 0 209 209" fill="none" xmlns="http://www.w3.org/2000/svg">
<path d="M101.56 0.0363466C84.6991 0.485329 67.8785 5.05676 52.2419 14.0772C2.27007 42.9344 -14.8363 106.812 14.0281 156.771C42.8926 206.73 106.786 223.833 156.758 194.975C206.73 166.118 223.836 102.241 194.972 52.2813C175.13 17.9139 138.631 -0.943247 101.56 0.0363466ZM72.4919 28.7711C82.6169 27.5466 93.6401 32.2405 104.5 40.5262C107.154 38.5262 110.012 36.8119 112.665 35.3017C128.874 25.9548 139.815 28.2813 146.306 32.0364C158.677 39.1793 162.351 54.4854 160.024 72.5262C176.804 79.5467 188.113 90.2405 188.113 104.526C188.113 111.996 184.724 122.934 168.516 132.281C165.862 133.792 163.086 135.22 160.024 136.526C162.351 154.608 158.677 169.873 146.306 177.016C133.936 184.159 118.993 179.588 104.5 168.526C101.846 170.526 99.315 172.241 96.6613 173.751C80.4531 183.098 69.185 180.771 62.6935 177.016C56.2837 173.302 45.8729 162.935 48.9758 136.853C49.0166 136.69 49.2615 136.69 49.3024 136.526C49.1391 136.445 48.8125 136.281 48.6491 136.2C24.4798 125.832 20.887 111.955 20.887 104.526C20.887 97.0569 24.2756 86.1181 40.4838 76.7711C43.1375 75.2609 45.9138 73.7915 48.9758 72.5262C46.6486 54.4446 50.323 39.1793 62.6935 32.0364C65.7963 30.2405 69.1033 29.1792 72.4919 28.7711ZM73.7984 39.2201C71.6754 39.4242 69.7157 40.1589 67.9193 41.1793C60.7747 45.3017 58.1618 55.5874 59.4274 68.9344C66.2046 66.8936 73.4717 65.4242 81.3105 64.363C86.128 58.1181 91.1905 52.567 96.3347 47.7099C88.1285 41.8731 80.2081 38.6078 73.7984 39.2201ZM130.629 39.5466C126.669 40.118 122.423 41.8323 117.891 44.4446C116.258 45.3834 114.339 46.1997 112.665 47.3834C117.891 52.2813 122.954 58.1997 127.69 64.363C135.406 65.3834 143.04 66.8936 149.899 68.9344C151.124 55.5874 148.225 45.3017 141.081 41.1793C138.06 39.4242 134.589 38.9752 130.629 39.5466ZM104.5 54.2405C101.642 56.8527 98.8659 59.8732 96.0081 63.0568C98.8251 62.9344 101.601 62.7303 104.5 62.7303C107.358 62.7303 110.134 62.9344 112.992 63.0568C110.134 59.8732 107.358 56.8527 104.5 54.2405ZM104.5 73.1793C98.4577 73.1793 92.497 73.5875 86.8629 74.1589C83.5559 78.7303 80.4123 83.5875 77.3911 88.8528C74.3699 94.1181 71.8387 99.3426 69.5524 104.526C71.8387 109.71 74.3699 114.934 77.3911 120.2C80.4123 125.465 83.5151 130.322 86.8629 134.894C92.497 135.506 98.4577 135.873 104.5 135.873C110.542 135.873 116.503 135.506 122.137 134.894C125.485 130.322 128.588 125.465 131.609 120.2C134.63 114.934 137.488 109.71 139.774 104.526C137.488 99.3426 134.63 94.1181 131.609 88.8528C128.588 83.5875 125.485 78.7303 122.137 74.1589C116.503 73.5466 110.542 73.1793 104.5 73.1793ZM72.8185 76.4446C68.6542 77.3018 64.7757 78.1997 61.0604 79.3834C61.877 83.2201 62.9385 87.3426 64.3266 91.465C65.6739 88.8936 66.7762 86.1589 68.2459 83.6283C69.6749 81.1385 71.3079 78.812 72.8185 76.4446ZM136.181 76.4446C137.733 78.8528 139.325 81.1385 140.754 83.6283C142.183 86.1181 143.367 88.6079 144.673 91.1385C146.021 87.0977 147.123 83.1793 147.94 79.3834C144.265 78.1997 140.346 77.3018 136.181 76.4446ZM50.9354 83.3018C49.0574 84.1589 47.3427 84.9752 45.7096 85.914C36.6869 91.1385 31.3386 97.5467 31.3386 104.526C31.3386 112.812 39.0141 120.485 51.262 126.077C52.8543 119.261 55.1814 112.077 58.1209 104.853C55.0998 97.5875 52.6093 90.363 50.9354 83.3018ZM158.065 83.3018C156.432 90.2406 153.819 97.3426 150.879 104.526C153.859 111.71 156.432 119.098 158.065 126.077C159.943 125.22 161.657 124.077 163.29 123.139C172.313 117.914 177.661 111.506 177.661 104.526C177.661 96.2814 170.231 88.8936 158.065 83.3018ZM103.194 94.0773C107.235 93.5875 111.481 95.5467 113.645 99.3018C116.544 104.281 114.707 110.771 109.726 113.669C104.745 116.567 98.2535 114.73 95.3548 109.751C92.4561 104.771 94.2933 98.2814 99.2742 95.3834C100.54 94.6487 101.846 94.2405 103.194 94.0773ZM64.3266 117.914C62.9793 121.955 61.877 125.873 61.0604 129.669C64.7348 130.853 68.6542 131.751 72.8185 132.608C71.2671 130.2 69.6749 127.914 68.2459 125.424C66.817 122.934 65.633 120.445 64.3266 117.914ZM144.673 117.914C143.367 120.445 142.183 122.934 140.754 125.424C139.325 127.914 137.692 130.241 136.181 132.608C140.346 131.751 144.224 130.853 147.94 129.669C147.123 125.873 146.021 121.955 144.673 117.914ZM59.4274 140.118C58.1618 153.506 60.7338 163.751 67.9193 167.873C73.9617 171.384 82.4128 170.159 91.4355 164.935C93.0685 163.996 94.6608 162.853 96.3347 161.669C91.068 156.69 85.8014 150.935 80.9838 144.69C73.2676 143.628 66.1638 142.159 59.4274 140.118ZM149.573 140.118C142.795 142.159 135.528 143.628 127.69 144.69C122.872 150.935 117.809 156.526 112.665 161.343C123.607 169.098 133.936 171.996 141.081 167.873C148.225 163.751 150.838 153.506 149.573 140.118ZM95.6814 145.996C98.5801 149.22 101.601 152.159 104.5 154.812C107.358 152.2 110.134 149.179 112.992 145.996C110.175 146.118 107.399 146.322 104.5 146.322C101.56 146.322 98.5801 146.159 95.6814 145.996Z" fill="#FFE088"/>
</svg>
