<svg width="26" height="26" viewBox="0 0 26 26" fill="none" xmlns="http://www.w3.org/2000/svg">
<mask id="mask0_98_377" style="mask-type:alpha" maskUnits="userSpaceOnUse" x="-3" y="-3" width="32" height="32">
<rect x="-2.59993" y="-2.59993" width="31.2001" height="31.2001" fill="#D9D9D9"/>
</mask>
<g mask="url(#mask0_98_377)">
<path d="M11.7 19.5001H14.3V11.7H11.7V19.5001ZM13 9.10003C13.3684 9.10003 13.6771 8.97545 13.9263 8.72628C14.1755 8.47711 14.3 8.16836 14.3 7.80003C14.3 7.43169 14.1755 7.12294 13.9263 6.87377C13.6771 6.6246 13.3684 6.50002 13 6.50002C12.6317 6.50002 12.323 6.6246 12.0738 6.87377C11.8246 7.12294 11.7 7.43169 11.7 7.80003C11.7 8.16836 11.8246 8.47711 12.0738 8.72628C12.323 8.97545 12.6317 9.10003 13 9.10003ZM13 26.0001C11.2017 26.0001 9.5117 25.6588 7.93003 24.9763C6.34835 24.2938 4.97252 23.3676 3.80251 22.1976C2.63251 21.0276 1.70626 19.6517 1.02375 18.0701C0.341251 16.4884 0 14.7984 0 13C0 11.2017 0.341251 9.5117 1.02375 7.93003C1.70626 6.34835 2.63251 4.97252 3.80251 3.80251C4.97252 2.63251 6.34835 1.70626 7.93003 1.02375C9.5117 0.341251 11.2017 0 13 0C14.7984 0 16.4884 0.341251 18.0701 1.02375C19.6517 1.70626 21.0276 2.63251 22.1976 3.80251C23.3676 4.97252 24.2938 6.34835 24.9763 7.93003C25.6588 9.5117 26.0001 11.2017 26.0001 13C26.0001 14.7984 25.6588 16.4884 24.9763 18.0701C24.2938 19.6517 23.3676 21.0276 22.1976 22.1976C21.0276 23.3676 19.6517 24.2938 18.0701 24.9763C16.4884 25.6588 14.7984 26.0001 13 26.0001ZM13 23.4001C15.9034 23.4001 18.3626 22.3926 20.3776 20.3776C22.3926 18.3626 23.4001 15.9034 23.4001 13C23.4001 10.0967 22.3926 7.63752 20.3776 5.62252C18.3626 3.60751 15.9034 2.60001 13 2.60001C10.0967 2.60001 7.63752 3.60751 5.62252 5.62252C3.60751 7.63752 2.60001 10.0967 2.60001 13C2.60001 15.9034 3.60751 18.3626 5.62252 20.3776C7.63752 22.3926 10.0967 23.4001 13 23.4001Z" fill="#1C1B1F"/>
</g>
</svg>
