<svg width="37" height="38" viewBox="0 0 37 38" fill="none" xmlns="http://www.w3.org/2000/svg">
<path d="M3.7 11.3804H4.22857C6.26357 11.3804 7.92857 13.0875 7.92857 15.1739V34.1413C7.92857 36.2277 6.26357 37.9347 4.22857 37.9347H3.7C1.665 37.9347 0 36.2277 0 34.1413V15.1739C0 13.0875 1.665 11.3804 3.7 11.3804ZM18.5 0C20.535 0 22.2 1.70706 22.2 3.79347V34.1413C22.2 36.2277 20.535 37.9347 18.5 37.9347C16.465 37.9347 14.8 36.2277 14.8 34.1413V3.79347C14.8 1.70706 16.465 0 18.5 0ZM33.3 21.677C35.335 21.677 37 23.3841 37 25.4705V34.1413C37 36.2277 35.335 37.9347 33.3 37.9347C31.265 37.9347 29.6 36.2277 29.6 34.1413V25.4705C29.6 23.3841 31.265 21.677 33.3 21.677Z" fill="#F8F3EA"/>
</svg>
