<svg width="351" height="68" viewBox="0 0 351 68" fill="none" xmlns="http://www.w3.org/2000/svg">
<path d="M0.5 10C0.5 7.62884 0.501062 5.90077 0.6786 4.58027C0.854204 3.27414 1.19417 2.44187 1.81802 1.81802C2.44187 1.19417 3.27414 0.854204 4.58026 0.6786C5.90077 0.501062 7.62884 0.5 10 0.5H341C343.371 0.5 345.099 0.501062 346.42 0.6786C347.726 0.854204 348.558 1.19417 349.182 1.81802C349.806 2.44187 350.146 3.27414 350.321 4.58027C350.499 5.90077 350.5 7.62884 350.5 10V58C350.5 60.3712 350.499 62.0992 350.321 63.4197C350.146 64.7259 349.806 65.5581 349.182 66.182C348.558 66.8058 347.726 67.1458 346.42 67.3214C345.099 67.4989 343.371 67.5 341 67.5H9.99999C7.62884 67.5 5.90077 67.4989 4.58026 67.3214C3.27414 67.1458 2.44187 66.8058 1.81802 66.182C1.19417 65.5581 0.854204 64.7259 0.6786 63.4197C0.501062 62.0992 0.5 60.3712 0.5 58V10Z" fill="white" stroke="black"/>
</svg>
