<svg width="34" height="9" viewBox="0 0 34 9" fill="none" xmlns="http://www.w3.org/2000/svg">
<path d="M4.25 0C1.9125 0 0 1.9125 0 4.25C0 6.5875 1.9125 8.5 4.25 8.5C6.5875 8.5 8.5 6.5875 8.5 4.25C8.5 1.9125 6.5875 0 4.25 0ZM29.75 0C27.4125 0 25.5 1.9125 25.5 4.25C25.5 6.5875 27.4125 8.5 29.75 8.5C32.0875 8.5 34 6.5875 34 4.25C34 1.9125 32.0875 0 29.75 0ZM17 0C14.6625 0 12.75 1.9125 12.75 4.25C12.75 6.5875 14.6625 8.5 17 8.5C19.3375 8.5 21.25 6.5875 21.25 4.25C21.25 1.9125 19.3375 0 17 0Z" fill="black"/>
</svg>
