<svg width="337" height="70" viewBox="0 0 337 70" fill="none" xmlns="http://www.w3.org/2000/svg">
<path d="M0.5 10C0.5 7.62884 0.501062 5.90077 0.6786 4.58026C0.854204 3.27414 1.19417 2.44187 1.81802 1.81802C2.44187 1.19417 3.27414 0.854204 4.58026 0.6786C5.90077 0.501062 7.62884 0.5 10 0.5H327C329.371 0.5 331.099 0.501062 332.42 0.6786C333.726 0.854204 334.558 1.19417 335.182 1.81802C335.806 2.44187 336.146 3.27414 336.321 4.58027C336.499 5.90077 336.5 7.62884 336.5 10V60C336.5 62.3712 336.499 64.0992 336.321 65.4197C336.146 66.7259 335.806 67.5581 335.182 68.182C334.558 68.8058 333.726 69.1458 332.42 69.3214C331.099 69.4989 329.371 69.5 327 69.5H10C7.62884 69.5 5.90077 69.4989 4.58026 69.3214C3.27414 69.1458 2.44187 68.8058 1.81802 68.182C1.19417 67.5581 0.854204 66.7259 0.6786 65.4197C0.501062 64.0992 0.5 62.3712 0.5 60V10Z" fill="white" stroke="black"/>
</svg>
